{"title":"Blade, Platinum Ed 1998 BDrip 720p [MP4-AAC](oan)","uid":9744820,"size":6747702888,"categoryP":"video","categoryS":"hd___movies","magnet":"?xt=urn:btih:20d01473e0a79404878922eaba74176d4e3e5fb0&amp;dn=Blade%2C+Platinum+Ed+1998+BDrip+720p+%5BMP4-AAC%5D%28oan%29&amp;tr=udp%3A%2F%2Ftracker.openbittorrent.com%3A80&amp;tr=udp%3A%2F%2Fopen.demonii.com%3A1337&amp;tr=udp%3A%2F%2Ftracker.coppersurfer.tk%3A6969&amp;tr=udp%3A%2F%2Fexodus.desync.com%3A6969","seeders":1,"leechers":0,"uploader":"oneanight","files":-1,"time":1394569489,"description":"\n\nBlade, Platinum Ed 1998 BDrip 720p [MP4-AAC](oan)\n\n &lt;a href=&quot;\nhttp://image.geotorrents.com/images/64134191332970599973.png&quot; rel=&quot;nofollow&quot; target=&quot;_NEW&quot;&gt;\nhttp://image.geotorrents.com/images/64134191332970599973.png&lt;/a&gt;\n\n\nBlade is a 1998 American vampire-superhero action film starring\nWesley Snipes and Stephen Dorff, loosely based on the Marvel Comics\ncharacter Blade. Snipes plays Blade, a human-vampire hybrid who\nprotects humans from vampires.\n\nThe film was directed by Stephen Norrington and written by David S.\nGoyer. Blade grossed $70 million at the U.S. box office, and\n$131.2 million worldwide. It was followed by two sequels,\nBlade II and Blade: Trinity, both written by Goyer\n\n &lt;a href=&quot;\nhttp://www.imdb.com/title/tt0120611/&quot; rel=&quot;nofollow&quot; target=&quot;_NEW&quot;&gt;\nhttp://www.imdb.com/title/tt0120611/&lt;/a&gt;\n\n &lt;a href=&quot;\nhttp://imgbox.com/kleDHibM&quot; rel=&quot;nofollow&quot; target=&quot;_NEW&quot;&gt;\nhttp://imgbox.com/kleDHibM&lt;/a&gt;\n\n\nFormat : MPEG-4\nFormat profile : Base Media\nCodec ID : isom\nFile size : 6.22 GiB\nDuration : 2h 0mn\nOverall bit rate mode : Variable\nOverall bit rate : 7401 Kbps\n\n\nVideo\nID : 1\nFormat : AVC\nFormat/Info : Advanced Video Codec\nFormat profile : &lt;a class=&quot;__cf_email__&quot; href=&quot;/cdn-cgi/l/email-protection&quot; data-cfemail=&quot;bbf6dad2d5fbf788958a&quot;&gt;[email&amp;#160;protected]&lt;/a&gt;&lt;script cf-hash='f9e31' type=&quot;text/javascript&quot;&gt;\n/* &lt;![CDATA[ */!function(){try{var t=&quot;currentScript&quot;in document?document.currentScript:function(){for(var t=document.getElementsByTagName(&quot;script&quot;),e=t.length;e--;)if(t[e].getAttribute(&quot;cf-hash&quot;))return t[e]}();if(t&amp;&amp;t.previousSibling){var e,r,n,i,c=t.previousSibling,a=c.getAttribute(&quot;data-cfemail&quot;);if(a){for(e=&quot;&quot;,r=parseInt(a.substr(0,2),16),n=2;a.length-n;n+=2)i=parseInt(a.substr(n,2),16)^r,e+=String.fromCharCode(i);e=document.createTextNode(e),c.parentNode.replaceChild(e,c)}}}catch(u){}}();/* ]]&gt; */&lt;/script&gt;\nFormat settings, CABAC : Yes\nFormat settings, ReFrames : 1 frame\nCodec ID : avc1\nCodec ID/Info : Advanced Video Coding\nDuration : 2h 0mn\nBit rate : 3 871 Kbps\nMaximum bit rate : 9 210 Kbps\nWidth : 1 280 pixels\nHeight : 528 pixels\nDisplay aspect ratio : 2.40:1\nFrame rate mode : Constant\nFrame rate : 23.976 fps\nBit depth : 8 bits\nScan type : Progressive\nBits/(Pixel*Frame) : 0.239\nStream size : 3.25 GiB\nWriting library : x264 core\nTransfer characteristics : BT.709\nMatrix coefficients : BT.709\n\nAudio #1\nID : 2\nFormat : AAC\nFormat/Info : Advanced Audio Codec\nFormat profile : LC\nCodec ID : 40\nDuration : 2h 0mn\nBit rate mode : Variable\nBit rate : 435 Kbps\nMaximum bit rate : 660 Kbps\nChannel(s) : 2 channels\nChannel(s)_Original : 6 channels\nChannel positions : Front: L C R, Side: L R, LFE\nSampling rate : 48.0 KHz\nCompression mode : Lossy\nStream size : 374 MiB\nLanguage : English\n\n\nAudio #2\nID : 11\nFormat : AC-3\nFormat/Info : Audio Coding 3\nMode extension : CM (complete main)\nFormat settings, Endianness : Big\nCodec ID : ac-3\nDuration : 2h 0mn\nBit rate mode : Constant\nBit rate : 640 Kbps\nChannel(s) : 6 channels\nChannel positions : Front: L C R, Side: L R, LFE\n\nAudio #3\nID : 12\nFormat : AC-3\nFormat/Info : Audio Coding 3\nMode extension : CM (complete main)\nFormat settings, Endianness : Big\nCodec ID : ac-3\nDuration : 2h 0mn\nBit rate mode : Constant\nBit rate : 640 Kbps\nChannel(s) : 6 channels\nChannel positions : Front: L C R, Side: L R, LFE\nSampling rate : 48.0 KHz\nBit depth : 16 bits\nCompression mode : Lossy\nTitle : Italian\n\nAudio #4\nID : 13\nFormat : AC-3\nFormat/Info : Audio Coding 3\nMode extension : CM (complete main)\nFormat settings, Endianness : Big\nCodec ID : ac-3\nDuration : 2h 0mn\nBit rate mode : Constant\nBit rate : 384 Kbps\nChannel(s) : 6 channels\nChannel positions : Front: L C R, Side: L R, LFE\nSampling rate : 48.0 KHz\nBit depth : 16 bits\nCompression mode : Lossy\nStream size : 330 MiB\nTitle : Spanish\n\nAudio #5\nID : 14\nFormat : AC-3\nFormat/Info : Audio Coding 3\nMode extension : CM (complete main)\nFormat settings, Endianness : Big\nCodec ID : ac-3\nDuration : 2h 0mn\nBit rate mode : Constant\nBit rate : 192 Kbps\nChannel(s) : 2 channels\nChannel positions : Front: L R\nSampling rate : 48.0 KHz\nBit depth : 16 bits\nCompression mode : Lossy\nStream size : 165 MiB\nTitle : Portuguese\n\nAudio #6\nID : 15\nFormat : AC-3\nFormat/Info : Audio Coding 3\nFormat profile : Dolby Digital\nMode extension : CM (complete main)\nFormat settings, Endianness : Big\nCodec ID : ac-3\nDuration : 2h 0mn\nBit rate mode : Constant\nBit rate : 192 Kbps\nChannel(s) : 2 channels\nChannel positions : Front: L R\nSampling rate : 48.0 KHz\nBit depth : 16 bits\nCompression mode : Lossy\nStream size : 165 MiB\nTitle : Czech\n\nAudio #7\nID : 16\nFormat : AC-3\nFormat/Info : Audio Coding 3\nMode extension : CM (complete main)\nFormat settings, Endianness : Big\nCodec ID : ac-3\nDuration : 2h 0mn\nBit rate mode : Constant\nBit rate : 640 Kbps\nChannel(s) : 6 channels\nChannel positions : Front: L C R, Side: L R, LFE\nSampling rate : 48.0 KHz\nBit depth : 16 bits\nCompression mode : Lossy\nStream size : 551 MiB\nTitle : Russian\n\nAudio #8\nID : 17\nFormat : AC-3\nFormat/Info : Audio Coding 3\nFormat profile : Dolby Digital\nMode extension : CM (complete main)\nFormat settings, Endianness : Big\nCodec ID : ac-3\nDuration : 2h 0mn\nBit rate mode : Constant\nBit rate : 192 Kbps\nChannel(s) : 2 channels\nChannel positions : Front: L R\nSampling rate : 48.0 KHz\nBit depth : 16 bits\nCompression mode : Lossy\nStream size : 165 MiB\nTitle : Japanese\n\nAudio #9\nID : 18\nFormat : AC-3\nFormat/Info : Audio Coding 3\nFormat profile : Dolby Digital\nMode extension : CM (complete main)\nFormat settings, Endianness : Big\nCodec ID : ac-3\nDuration : 2h 0mn\nBit rate mode : Constant\nBit rate : 192 Kbps\nChannel(s) : 2 channels\nChannel positions : Front: L R\nSampling rate : 48.0 KHz\nBit depth : 16 bits\nCompression mode : Lossy\nStream size : 165 MiB\nTitle : English, Commentary\n\nText #1\nID : 3\nFormat : mp4s\nDuration : 2h 0mn\nBit rate mode : Variable\nBit rate : 2 568 bps\nMaximum bit rate : 45.8 Kbps\nStream size : 2.31 MiB\nLanguage : English\n\nText #2\nID : 4\nFormat : mp4s\nDuration : 2h 0mn\nBit rate mode : Variable\nBit rate : 2 936 bps\nMaximum bit rate : 49.8 Kbps\nStream size : 2.64 MiB\nLanguage : German\n\nText #3\nID : 5\nFormat : mp4s\nDuration : 2h 0mn\nBit rate mode : Variable\nBit rate : 2 608 bps\nMaximum bit rate : 49.3 Kbps\nStream size : 2.34 MiB\nLanguage : Italian\n\nText #4\nID : 6\nFormat : mp4s\nDuration : 2h 0mn\nBit rate mode : Variable\nBit rate : 2 336 bps\nMaximum bit rate : 44.1 Kbps\nStream size : 2.10 MiB\nLanguage : Spanish\n\nText #5\nID : 7\nFormat : mp4s\nDuration : 2h 0mn\nBit rate mode : Variable\nBit rate : 2 256 bps\nMaximum bit rate : 47.1 Kbps\nStream size : 2.03 MiB\nLanguage : Dutch\n\nText #6\nID : 8\nFormat : mp4s\nDuration : 2h 0mn\nBit rate mode : Variable\nBit rate : 2 160 bps\nMaximum bit rate : 42.5 Kbps\nStream size : 1.94 MiB\nLanguage : Spanish\n\n\nText #7\nID : 9\nFormat : mp4s\nBit rate mode : Variable\nBit rate : 2 424 bps\nMaximum bit rate : 47.6 Kbps\nStream size : 2.18 MiB\nLanguage : Portuguese\n\nMenu\nID : 10\nCodec ID : text\nDuration : 1h 56mn","torrent":{"xt":"urn:btih:20d01473e0a79404878922eaba74176d4e3e5fb0","amp;dn":"Blade%2C+Platinum+Ed+1998+BDrip+720p+%5BMP4-AAC%5D%28oan%29","amp;tr":["udp%3A%2F%2Ftracker.openbittorrent.com%3A80","udp%3A%2F%2Fopen.demonii.com%3A1337","udp%3A%2F%2Ftracker.coppersurfer.tk%3A6969","udp%3A%2F%2Fexodus.desync.com%3A6969"],"infoHash":"20d01473e0a79404878922eaba74176d4e3e5fb0","infoHashBuffer":{"type":"Buffer","data":[32,208,20,115,224,167,148,4,135,137,34,234,186,116,23,109,78,62,95,176]},"announce":[],"urlList":[]}}